<svg xmlns="http://www.w3.org/2000/svg" xmlns:xlink="http://www.w3.org/1999/xlink" viewBox="0 0 144 48"><defs><style>.cls-1{fill:none;}.cls-2{clip-path:url(#clip-path);}.cls-3{opacity:0.5;}.cls-4{fill:#323232;}.cls-5{fill:#fff5af;}.cls-6{clip-path:url(#clip-path-2);}.cls-7{fill:#191919;}</style><clipPath id="clip-path"><rect class="cls-1" width="144" height="48"/></clipPath><clipPath id="clip-path-2"><rect class="cls-1" x="-164" width="144" height="48"/></clipPath></defs><g id="Active"><g class="cls-2"><g class="cls-3"><path class="cls-4" d="M.74,43.47c.53.93,1.45,1,2.32,1.17A2.42,2.42,0,0,0,.74,43.47Z"/><path class="cls-4" d="M3.07,44.66h0Z"/><path class="cls-4" d="M45.07,47.33l.13-1.54c2,0,.6,1.76,2.5,1.39.74-2.18,3.16.22,3.81-.94,0,.18.92.24.86.92.29-1.18,1-.27,1.55-.57.21-.33-.16-.36-.32-.71L55,45.46c.52.38.65,1.08.08,1.2,3.52.43,20.39,1.56,24.18,1-.49-.89-1.65-.29-2.1-1.69,1-.79,1.48.27,1.92-.55.38,2.08,2.2.5,3,2.61l.28-1.18.5.72c4.4-1.23,1-.6,4.91-.32C89.94,47,91,45.4,92.27,46c-.19,0-.68-.74-.1-1,.1,1,1.56-.74,1.84.31.58-.13,2.43,0,1.81-1.42.31.71,2,1,1,1.61.56,0,1.1.25,1.5-.06l-.71-.4c1.88-.2,2.91.9,4.14-.39l-.7-.56c1.13-.09,2.08-.2,2.52,1.21l-1.16.43a9.65,9.65,0,0,0,4.56-.88l-.55,0c2-1.4,12.38-2.56,14.21-4.31l-.84-1.09,1.57-.92c-.18,0-.76,3.54-.91,3.18,3.37-.1,20.93-1,24-.21,1.26.6.23,1.73.22,1.9,1.53-.4.66-1.15,2-1.06.35.2-.08.86-.28,1,.57-.13,1.1.25,1.15-.26-.72-.4-.41-1.75-.72-2.63l1.68.12-.08.86c.38,0,.95-2.34,2.59-1.88,2.78.37,5.79.07,8.58.27,0,.51-.63.81-1.22,1.11.38,0,1-.1,1.29.27-.67-.91,1.17-.61.65-1,2-2.09,4.68-.18,6.48-1.6.16-1.87,3.87-32.24,3.87-34.47a2.58,2.58,0,0,1,1.28.26c-.14-.52-1.24-.77-1.83-.47L170,5.05c-1.34.42-.31-.71-1.63-.63-.07-1,1.14-1.18,2.21-1.28-1-.11-1.92-.82-2.31.25-.9-.41.1-1.2-1-1.62-.77.29-1.79,1.25-2.68.67l0-.17c-2.16-1-3.3,1.48-5.28.48l.22-.33c-.7-.56-2.07.2-3.33-.4.36.19.67.9-.09,1-1.44-.62-2.43,0-3.49-.76l-1,1c-5-.18-24.92,1.18-30,1.33l.2-.15c-7.7.48-23.52.4-31.48,1.72-1.24-.94-2.93-.72-4.22-1,.71.39.47,1.06-.09,1-3.91-.11-.26.65-4.22,1.06-4.56.88-22-.12-26.06-.93-2.17,1.39-4.88.34-7,1.22L49,7.19c-2.29.53-15.24-.76-17.9-.27l.36.2c-2.32.87-2-.65-3.83-1.13.24,1.56-1.74,2.45-2.5,2.57l0-.35C24,8.48,21.42,9.83,19.53,10l.07-.85c-1.57.91-4.53.53-5.66.62C11.35,9.46,7.37,8,3.91,9.1L1.67,6.67l-.32.24s-3.6,29.38,1,35.64l-.08.85.91-.11c1.08.42,1.58-.57,1.51.28l-1.49-.1c1.09.25.33.7-.08,1.18a3,3,0,0,1,1.25.45c.22-.33-.15-.36-.32-.54.58-.3,1.4-1.1,2.11-.71,1.12.08.07,1.38,1.37,1.47C14.36,46,21,47,27.94,46.78c.16.35,0,.34-.23.5,2.09-.37,3.95-.24,5.85-.62a2.62,2.62,0,0,1,.83,1.26C34.08,47.21,44.89,47.15,45.07,47.33Z"/></g><path class="cls-5" d="M.74,41.7c.53.93,1.45,1,2.32,1.17A2.4,2.4,0,0,0,.74,41.7Z"/><path class="cls-5" d="M3.07,42.89h0S3.07,42.88,3.07,42.89Z"/><path class="cls-5" d="M45.07,45.56,45.2,44c2,0,.6,1.76,2.5,1.38.74-2.17,3.16.23,3.81-.93,0,.17.92.24.86.92.29-1.18,1-.27,1.55-.57.21-.33-.16-.36-.32-.71L55,43.69c.52.38.65,1.07.08,1.2,3.52.43,20.39,1.56,24.18,1-.49-.89-1.65-.29-2.1-1.69,1-.79,1.48.27,1.92-.56.38,2.09,2.2.5,3,2.62l.28-1.18.5.72c4.4-1.23,1-.6,4.91-.32,2.26-.18,3.33-1.83,4.59-1.22-.19,0-.68-.74-.1-1,.1,1,1.56-.74,1.84.3.58-.13,2.43,0,1.81-1.41.31.71,2,1,1,1.61.56,0,1.1.25,1.5-.06l-.71-.4c1.88-.2,2.91.9,4.14-.39l-.7-.56c1.13-.09,2.08-.2,2.52,1.21l-1.16.43A9.65,9.65,0,0,0,107,43l-.55,0c2-1.4,12.38-2.56,14.21-4.32l-.84-1.09,1.57-.91c-.18,0-.76,3.54-.91,3.18,3.37-.1,20.93-1,24-.21,1.26.6.23,1.73.22,1.9,1.53-.41.66-1.16,2-1.06.35.19-.08.85-.28,1,.57-.13,1.1.25,1.15-.26-.72-.4-.41-1.75-.72-2.63l1.68.12-.08.85c.38,0,.95-2.33,2.59-1.87,2.78.37,5.79.07,8.58.27,0,.51-.63.81-1.22,1.11.38,0,1-.1,1.29.26-.67-.9,1.17-.6.65-1,2-2.09,4.68-.18,6.48-1.6.16-1.87,3.87-32.24,3.87-34.47a2.58,2.58,0,0,1,1.28.26c-.14-.52-1.24-.77-1.83-.47L170,3.28c-1.34.42-.31-.71-1.63-.63-.07-1,1.14-1.19,2.21-1.28-1-.11-1.92-.83-2.31.24-.9-.4.1-1.19-1-1.61-.77.29-1.79,1.25-2.68.67l0-.18c-2.16-1-3.3,1.49-5.28.49l.22-.33c-.7-.56-2.07.2-3.33-.41.36.2.67.91-.09,1-1.44-.62-2.43,0-3.49-.77l-1,1c-5-.19-24.92,1.18-30,1.33l.2-.15c-7.7.48-23.52.4-31.48,1.72-1.24-.94-2.93-.72-4.22-1,.71.39.47,1.06-.09,1-3.91-.11-.26.65-4.22,1.06-4.56.87-22-.13-26.06-.93-2.17,1.39-4.88.34-7,1.22L49,5.42c-2.29.52-15.24-.76-17.9-.27l.36.2c-2.32.87-2-.66-3.83-1.13.24,1.56-1.74,2.45-2.5,2.56l0-.34C24,6.7,21.42,8.06,19.53,8.27l.07-.85C18,8.33,15.07,8,13.94,8c-2.59-.35-6.57-1.84-10-.71L1.67,4.9l-.32.24s-3.6,29.38,1,35.64l-.08.85.91-.11c1.08.42,1.58-.57,1.51.28l-1.49-.1c1.09.24.33.7-.08,1.18a3,3,0,0,1,1.25.44C4.56,43,4.19,43,4,42.79c.58-.3,1.4-1.11,2.11-.71,1.12.08.07,1.38,1.37,1.47C14.36,44.21,21,45.2,27.94,45c.16.36,0,.35-.23.5,2.09-.36,3.95-.23,5.85-.61a2.57,2.57,0,0,1,.83,1.26C34.08,45.44,44.89,45.38,45.07,45.56Z"/></g></g><g id="Default"><g class="cls-6"><g class="cls-3"><path class="cls-4" d="M7.28,3.08l-.71.06A1.43,1.43,0,0,0,7.28,3.08Z"/><path class="cls-4" d="M-118.93,47.33l.13-1.54c2,0,.6,1.76,2.5,1.39.74-2.18,3.16.22,3.81-.94,0,.18.92.24.86.92.29-1.18,1-.27,1.55-.57.21-.33-.16-.36-.32-.71l1.35-.42c.52.38.65,1.08.08,1.2,3.52.43,20.39,1.56,24.18,1-.49-.89-1.65-.29-2.1-1.69,1-.79,1.48.27,1.92-.55.38,2.08,2.2.5,3,2.61l.28-1.18.5.72c4.4-1.23,1-.6,4.91-.32C-74.06,47-73,45.4-71.73,46c-.19,0-.68-.74-.1-1,.1,1,1.56-.74,1.84.31.58-.13,2.43,0,1.81-1.42.31.71,2,1,1,1.61.56,0,1.1.25,1.5-.06l-.71-.4c1.88-.2,2.91.9,4.14-.39l-.7-.56c1.13-.09,2.08-.2,2.52,1.21l-1.16.43A9.65,9.65,0,0,0-57,44.81l-.55,0c2-1.4,12.38-2.56,14.21-4.31l-.84-1.09,1.57-.92c-.18,0-.76,3.54-.91,3.18,3.37-.1,20.93-1,24-.21,1.26.6.23,1.73.22,1.9,1.53-.4.66-1.15,2-1.06.35.2-.08.86-.28,1,.57-.13,1.1.25,1.15-.26-.72-.4-.41-1.75-.72-2.63l1.68.12-.08.86c.38,0,.95-2.34,2.59-1.88,2.78.37,5.79.07,8.58.27,0,.51-.63.81-1.22,1.11.38,0,1-.1,1.29.27-.67-.91,1.17-.61.65-1,2-2.09,4.68-.18,6.48-1.6C2.93,36.67,6.64,6.3,6.64,4.07a2.58,2.58,0,0,1,1.28.26c-.14-.52-1.24-.77-1.83-.47L6,5.05c-1.34.42-.31-.71-1.63-.63-.07-1,1.14-1.18,2.21-1.28-1-.11-1.92-.82-2.31.25-.9-.41.1-1.2-1-1.62C2.51,2.06,1.49,3,.6,2.44l0-.17c-2.16-1-3.3,1.48-5.28.48l.22-.33c-.7-.56-2.07.2-3.33-.4.36.19.67.9-.09,1-1.44-.62-2.43,0-3.49-.76l-1,1c-5-.18-24.92,1.18-30,1.33l.2-.15c-7.7.48-23.52.4-31.48,1.72-1.24-.94-2.93-.72-4.22-1,.71.39.47,1.06-.09,1-3.91-.11-.26.65-4.22,1.06-4.56.88-22-.12-26.06-.93-2.17,1.39-4.88.34-7,1.22l.21-.33c-2.29.53-15.24-.76-17.9-.27l.36.2c-2.32.87-2-.65-3.83-1.13.24,1.56-1.74,2.45-2.5,2.57l0-.35c-1.15.27-3.73,1.62-5.62,1.83l.07-.85c-1.57.91-4.53.53-5.66.62-2.59-.35-6.57-1.84-10-.71l-2.24-2.43-.32.24s-3.6,29.38,1,35.64l-.08.85.91-.11c1.08.42,1.58-.57,1.51.28l-1.49-.1c1.09.25.33.7-.08,1.18a3,3,0,0,1,1.25.45c.22-.33-.15-.36-.32-.54.58-.3,1.4-1.1,2.11-.71,1.12.08.07,1.38,1.37,1.47,6.86.66,13.51,1.65,20.44,1.46.16.35,0,.34-.23.5,2.09-.37,3.95-.24,5.85-.62a2.62,2.62,0,0,1,.83,1.26C-129.92,47.21-119.11,47.15-118.93,47.33Z"/></g><path class="cls-4" d="M7.28,1.31l-.71.06A1.43,1.43,0,0,0,7.28,1.31Z"/><path class="cls-7" d="M-118.93,45.56l.13-1.54c2,0,.6,1.76,2.5,1.38.74-2.17,3.16.23,3.81-.93,0,.17.92.24.86.92.29-1.18,1-.27,1.55-.57.21-.33-.16-.36-.32-.71l1.35-.42c.52.38.65,1.07.08,1.2,3.52.43,20.39,1.56,24.18,1-.49-.89-1.65-.29-2.1-1.69,1-.79,1.48.27,1.92-.56.38,2.09,2.2.5,3,2.62l.28-1.18.5.72c4.4-1.23,1-.6,4.91-.32,2.26-.18,3.33-1.83,4.59-1.22-.19,0-.68-.74-.1-1,.1,1,1.56-.74,1.84.3.58-.13,2.43,0,1.81-1.41.31.71,2,1,1,1.61.56,0,1.1.25,1.5-.06l-.71-.4c1.88-.2,2.91.9,4.14-.39l-.7-.56c1.13-.09,2.08-.2,2.52,1.21l-1.16.43A9.65,9.65,0,0,0-57,43l-.55,0c2-1.4,12.38-2.56,14.21-4.32l-.84-1.09,1.57-.91c-.18,0-.76,3.54-.91,3.18,3.37-.1,20.93-1,24-.21,1.26.6.23,1.73.22,1.9,1.53-.41.66-1.16,2-1.06.35.19-.08.85-.28,1,.57-.13,1.1.25,1.15-.26-.72-.4-.41-1.75-.72-2.63l1.68.12-.08.85c.38,0,.95-2.33,2.59-1.87,2.78.37,5.79.07,8.58.27,0,.51-.63.81-1.22,1.11.38,0,1-.1,1.29.26-.67-.9,1.17-.6.65-1,2-2.09,4.68-.18,6.48-1.6C2.93,34.9,6.64,4.53,6.64,2.3a2.58,2.58,0,0,1,1.28.26C7.78,2,6.68,1.79,6.09,2.09L6,3.28c-1.34.42-.31-.71-1.63-.63-.07-1,1.14-1.19,2.21-1.28-1-.11-1.92-.83-2.31.24-.9-.4.1-1.19-1-1.61C2.51.29,1.49,1.25.6.67l0-.18C-1.54-.52-2.68,2-4.66,1l.22-.33c-.7-.56-2.07.2-3.33-.41.36.2.67.91-.09,1-1.44-.62-2.43,0-3.49-.77l-1,1c-5-.19-24.92,1.18-30,1.33l.2-.15c-7.7.48-23.52.4-31.48,1.72-1.24-.94-2.93-.72-4.22-1,.71.39.47,1.06-.09,1-3.91-.11-.26.65-4.22,1.06-4.56.87-22-.13-26.06-.93-2.17,1.39-4.88.34-7,1.22l.21-.33c-2.29.52-15.24-.76-17.9-.27l.36.2c-2.32.87-2-.66-3.83-1.13.24,1.56-1.74,2.45-2.5,2.56l0-.34c-1.15.26-3.73,1.62-5.62,1.83l.07-.85c-1.57.91-4.53.53-5.66.62-2.59-.35-6.57-1.84-10-.71l-2.24-2.43-.32.24s-3.6,29.38,1,35.64l-.08.85.91-.11c1.08.42,1.58-.57,1.51.28l-1.49-.1c1.09.24.33.7-.08,1.18a3,3,0,0,1,1.25.44c.22-.32-.15-.35-.32-.53.58-.3,1.4-1.11,2.11-.71,1.12.08.07,1.38,1.37,1.47,6.86.66,13.51,1.65,20.44,1.45.16.36,0,.35-.23.5,2.09-.36,3.95-.23,5.85-.61a2.57,2.57,0,0,1,.83,1.26C-129.92,45.44-119.11,45.38-118.93,45.56Z"/></g></g></svg>