<?xml version="1.0" encoding="utf-8"?>
<!-- Generator: Adobe Illustrator 26.0.2, SVG Export Plug-In . SVG Version: 6.00 Build 0)  -->
<svg version="1.1" xmlns="http://www.w3.org/2000/svg" xmlns:xlink="http://www.w3.org/1999/xlink" x="0px" y="0px"
	 viewBox="0 0 144 48" style="enable-background:new 0 0 144 48;" xml:space="preserve">
<style type="text/css">
	.st0{opacity:0.5;clip-path:url(#SVGID_00000157269869877953223270000001524817015834390197_);}
	.st1{fill:#323232;}
	.st2{clip-path:url(#SVGID_00000157269869877953223270000001524817015834390197_);}
	.st3{fill:#FFF5AF;}
	.st4{opacity:0.5;clip-path:url(#SVGID_00000066505463731836252140000012280589298186379410_);}
	.st5{clip-path:url(#SVGID_00000066505463731836252140000012280589298186379410_);}
	.st6{fill:#191919;}
</style>
<g id="Active">
	<defs>
		<rect id="SVGID_1_" x="164" width="144" height="48"/>
	</defs>
	<clipPath id="SVGID_00000119083918157100497470000014670478336152128654_">
		<use xlink:href="#SVGID_1_"  style="overflow:visible;"/>
	</clipPath>
	<g style="opacity:0.5;clip-path:url(#SVGID_00000119083918157100497470000014670478336152128654_);">
		<path class="st1" d="M164.7,43.5c0.5,0.9,1.4,1,2.3,1.2C166.4,43.8,165.7,43.4,164.7,43.5z"/>
		<path class="st1" d="M167.1,44.7C167.1,44.7,167.1,44.7,167.1,44.7C167.1,44.6,167.1,44.6,167.1,44.7
			C167.1,44.7,167.1,44.7,167.1,44.7z"/>
		<path class="st1" d="M335.3,3.1c-0.2,0-0.5,0-0.7,0.1C334.8,3.2,335.1,3.2,335.3,3.1z"/>
		<path class="st1" d="M209.1,47.3l0.1-1.5c2.1,0,0.6,1.8,2.5,1.4c0.7-2.2,3.2,0.2,3.8-0.9c0,0.2,0.9,0.2,0.9,0.9
			c0.3-1.2,1-0.3,1.5-0.6c0.2-0.3-0.2-0.4-0.3-0.7l1.3-0.4c0.5,0.4,0.7,1.1,0.1,1.2c3.5,0.4,20.4,1.6,24.2,1
			c-0.5-0.9-1.7-0.3-2.1-1.7c1-0.8,1.5,0.3,1.9-0.6c0.4,2.1,2.2,0.5,3,2.6l0.3-1.2l0.5,0.7c4.4-1.2,1-0.6,4.9-0.3
			c2.3-0.2,3.3-1.8,4.6-1.2c-0.2,0-0.7-0.7-0.1-1c0.1,1,1.6-0.7,1.8,0.3c0.6-0.1,2.4,0,1.8-1.4c0.3,0.7,2,1,1,1.6
			c0.6,0,1.1,0.3,1.5-0.1l-0.7-0.4c1.9-0.2,2.9,0.9,4.1-0.4L265,44c1.1-0.1,2.1-0.2,2.5,1.2l-1.2,0.4c1.9,0,3-0.1,4.6-0.9l-0.6,0
			c2-1.4,12.4-2.6,14.2-4.3l-0.8-1.1l1.6-0.9c-0.2,0-0.8,3.5-0.9,3.2c3.4-0.1,20.9-0.9,24-0.2c1.3,0.6,0.2,1.7,0.2,1.9
			c1.5-0.4,0.7-1.2,2-1.1c0.4,0.2-0.1,0.9-0.3,1c0.6-0.1,1.1,0.2,1.1-0.3c-0.7-0.4-0.4-1.7-0.7-2.6l1.7,0.1l-0.1,0.9
			c0.4,0,0.9-2.3,2.6-1.9c2.8,0.4,5.8,0.1,8.6,0.3c0,0.5-0.6,0.8-1.2,1.1c0.4,0,0.9-0.1,1.3,0.3c-0.7-0.9,1.2-0.6,0.6-1
			c2-2.1,4.7-0.2,6.5-1.6c0.2-1.9,3.9-32.2,3.9-34.5c0.6,0,1.1,0.1,1.3,0.3c-0.1-0.5-1.2-0.8-1.8-0.5L334,5.1
			c-1.3,0.4-0.3-0.7-1.6-0.6c-0.1-1,1.1-1.2,2.2-1.3c-1-0.1-1.9-0.8-2.3,0.2c-0.9-0.4,0.1-1.2-1-1.6c-0.8,0.3-1.8,1.2-2.7,0.7l0-0.2
			c-2.2-1-3.3,1.5-5.3,0.5l0.2-0.3c-0.7-0.6-2.1,0.2-3.3-0.4c0.4,0.2,0.7,0.9-0.1,1c-1.4-0.6-2.4,0-3.5-0.8l-1,1
			c-5-0.2-24.9,1.2-30,1.3l0.2-0.2c-7.7,0.5-23.5,0.4-31.5,1.7c-1.2-0.9-2.9-0.7-4.2-1c0.7,0.4,0.5,1.1-0.1,1
			c-3.9-0.1-0.3,0.7-4.2,1.1c-4.6,0.9-22-0.1-26.1-0.9c-2.2,1.4-4.9,0.3-7,1.2l0.2-0.3c-2.3,0.5-15.2-0.8-17.9-0.3l0.4,0.2
			c-2.3,0.9-2-0.7-3.8-1.1c0.2,1.6-1.7,2.4-2.5,2.6l0-0.3c-1.1,0.3-3.7,1.6-5.6,1.8l0.1-0.9c-1.6,0.9-4.5,0.5-5.7,0.6
			c-2.6-0.4-6.6-1.8-10-0.7l-2.2-2.4l-0.3,0.2c0,0-3.6,29.4,1,35.6l-0.1,0.9l0.9-0.1c1.1,0.4,1.6-0.6,1.5,0.3l-1.5-0.1
			c1.1,0.2,0.3,0.7-0.1,1.2c0.5,0.1,0.9,0.2,1.3,0.4c0.2-0.3-0.2-0.4-0.3-0.5c0.6-0.3,1.4-1.1,2.1-0.7c1.1,0.1,0.1,1.4,1.4,1.5
			c6.9,0.7,13.5,1.6,20.4,1.5c0.2,0.4,0,0.3-0.2,0.5c2.1-0.4,3.9-0.2,5.8-0.6c0.5,0.4,0.7,0.9,0.8,1.3
			C198.1,47.2,208.9,47.1,209.1,47.3z"/>
	</g>
	<g style="clip-path:url(#SVGID_00000119083918157100497470000014670478336152128654_);">
		<path class="st3" d="M164.7,41.7c0.5,0.9,1.4,1,2.3,1.2C166.4,42,165.7,41.6,164.7,41.7z"/>
		<path class="st3" d="M167.1,42.9C167.1,42.9,167.1,42.9,167.1,42.9C167.1,42.9,167.1,42.9,167.1,42.9
			C167.1,42.9,167.1,42.9,167.1,42.9z"/>
		<path class="st3" d="M335.3,1.3c-0.2,0-0.5,0-0.7,0.1C334.8,1.4,335.1,1.4,335.3,1.3z"/>
		<path class="st3" d="M209.1,45.6l0.1-1.5c2.1,0,0.6,1.8,2.5,1.4c0.7-2.2,3.2,0.2,3.8-0.9c0,0.2,0.9,0.2,0.9,0.9
			c0.3-1.2,1-0.3,1.5-0.6c0.2-0.3-0.2-0.4-0.3-0.7l1.3-0.4c0.5,0.4,0.7,1.1,0.1,1.2c3.5,0.4,20.4,1.6,24.2,1
			c-0.5-0.9-1.7-0.3-2.1-1.7c1-0.8,1.5,0.3,1.9-0.6c0.4,2.1,2.2,0.5,3,2.6l0.3-1.2l0.5,0.7c4.4-1.2,1-0.6,4.9-0.3
			c2.3-0.2,3.3-1.8,4.6-1.2c-0.2,0-0.7-0.7-0.1-1c0.1,1,1.6-0.7,1.8,0.3c0.6-0.1,2.4,0,1.8-1.4c0.3,0.7,2,1,1,1.6
			c0.6,0,1.1,0.3,1.5-0.1l-0.7-0.4c1.9-0.2,2.9,0.9,4.1-0.4l-0.7-0.6c1.1-0.1,2.1-0.2,2.5,1.2l-1.2,0.4c1.9,0,3-0.1,4.6-0.9l-0.6,0
			c2-1.4,12.4-2.6,14.2-4.3l-0.8-1.1l1.6-0.9c-0.2,0-0.8,3.5-0.9,3.2c3.4-0.1,20.9-0.9,24-0.2c1.3,0.6,0.2,1.7,0.2,1.9
			c1.5-0.4,0.7-1.2,2-1.1c0.4,0.2-0.1,0.9-0.3,1c0.6-0.1,1.1,0.2,1.1-0.3c-0.7-0.4-0.4-1.7-0.7-2.6l1.7,0.1l-0.1,0.9
			c0.4,0,0.9-2.3,2.6-1.9c2.8,0.4,5.8,0.1,8.6,0.3c0,0.5-0.6,0.8-1.2,1.1c0.4,0,0.9-0.1,1.3,0.3c-0.7-0.9,1.2-0.6,0.6-1
			c2-2.1,4.7-0.2,6.5-1.6c0.2-1.9,3.9-32.2,3.9-34.5c0.6,0,1.1,0.1,1.3,0.3c-0.1-0.5-1.2-0.8-1.8-0.5L334,3.3
			c-1.3,0.4-0.3-0.7-1.6-0.6c-0.1-1,1.1-1.2,2.2-1.3c-1-0.1-1.9-0.8-2.3,0.2c-0.9-0.4,0.1-1.2-1-1.6c-0.8,0.3-1.8,1.2-2.7,0.7l0-0.2
			c-2.2-1-3.3,1.5-5.3,0.5l0.2-0.3c-0.7-0.6-2.1,0.2-3.3-0.4c0.4,0.2,0.7,0.9-0.1,1c-1.4-0.6-2.4,0-3.5-0.8l-1,1
			c-5-0.2-24.9,1.2-30,1.3l0.2-0.2c-7.7,0.5-23.5,0.4-31.5,1.7c-1.2-0.9-2.9-0.7-4.2-1c0.7,0.4,0.5,1.1-0.1,1
			c-3.9-0.1-0.3,0.7-4.2,1.1c-4.6,0.9-22-0.1-26.1-0.9c-2.2,1.4-4.9,0.3-7,1.2l0.2-0.3c-2.3,0.5-15.2-0.8-17.9-0.3l0.4,0.2
			c-2.3,0.9-2-0.7-3.8-1.1c0.2,1.6-1.7,2.4-2.5,2.6l0-0.3c-1.1,0.3-3.7,1.6-5.6,1.8l0.1-0.9C182,8.3,179.1,8,177.9,8
			c-2.6-0.4-6.6-1.8-10-0.7l-2.2-2.4l-0.3,0.2c0,0-3.6,29.4,1,35.6l-0.1,0.9l0.9-0.1c1.1,0.4,1.6-0.6,1.5,0.3l-1.5-0.1
			c1.1,0.2,0.3,0.7-0.1,1.2c0.5,0.1,0.9,0.2,1.3,0.4c0.2-0.3-0.2-0.4-0.3-0.5c0.6-0.3,1.4-1.1,2.1-0.7c1.1,0.1,0.1,1.4,1.4,1.5
			c6.9,0.7,13.5,1.6,20.4,1.5c0.2,0.4,0,0.3-0.2,0.5c2.1-0.4,3.9-0.2,5.8-0.6c0.5,0.4,0.7,0.9,0.8,1.3
			C198.1,45.4,208.9,45.4,209.1,45.6z"/>
	</g>
</g>
<g id="Default">
	<defs>
		<rect id="SVGID_00000025400493736783915190000009998907724872921986_" width="144" height="48"/>
	</defs>
	<clipPath id="SVGID_00000127738270046370372660000002454164167794525315_">
		<use xlink:href="#SVGID_00000025400493736783915190000009998907724872921986_"  style="overflow:visible;"/>
	</clipPath>
	<g style="opacity:0.5;clip-path:url(#SVGID_00000127738270046370372660000002454164167794525315_);">
		<path class="st1" d="M0.7,43.5c0.5,0.9,1.4,1,2.3,1.2C2.4,43.8,1.7,43.4,0.7,43.5z"/>
		<path class="st1" d="M3.1,44.7C3.1,44.7,3.1,44.7,3.1,44.7C3.1,44.6,3.1,44.6,3.1,44.7C3.1,44.7,3.1,44.7,3.1,44.7z"/>
		<path class="st1" d="M171.3,3.1c-0.2,0-0.5,0-0.7,0.1C170.8,3.2,171.1,3.2,171.3,3.1z"/>
		<path class="st1" d="M45.1,47.3l0.1-1.5c2.1,0,0.6,1.8,2.5,1.4c0.7-2.2,3.2,0.2,3.8-0.9c0,0.2,0.9,0.2,0.9,0.9
			c0.3-1.2,1-0.3,1.5-0.6c0.2-0.3-0.2-0.4-0.3-0.7l1.3-0.4c0.5,0.4,0.7,1.1,0.1,1.2c3.5,0.4,20.4,1.6,24.2,1
			c-0.5-0.9-1.7-0.3-2.1-1.7c1-0.8,1.5,0.3,1.9-0.6c0.4,2.1,2.2,0.5,3,2.6l0.3-1.2l0.5,0.7c4.4-1.2,1-0.6,4.9-0.3
			c2.3-0.2,3.3-1.8,4.6-1.2c-0.2,0-0.7-0.7-0.1-1c0.1,1,1.6-0.7,1.8,0.3c0.6-0.1,2.4,0,1.8-1.4c0.3,0.7,2,1,1,1.6
			c0.6,0,1.1,0.3,1.5-0.1L97.6,45c1.9-0.2,2.9,0.9,4.1-0.4L101,44c1.1-0.1,2.1-0.2,2.5,1.2l-1.2,0.4c1.9,0,3-0.1,4.6-0.9l-0.6,0
			c2-1.4,12.4-2.6,14.2-4.3l-0.8-1.1l1.6-0.9c-0.2,0-0.8,3.5-0.9,3.2c3.4-0.1,20.9-0.9,24-0.2c1.3,0.6,0.2,1.7,0.2,1.9
			c1.5-0.4,0.7-1.2,2-1.1c0.4,0.2-0.1,0.9-0.3,1c0.6-0.1,1.1,0.2,1.1-0.3c-0.7-0.4-0.4-1.7-0.7-2.6l1.7,0.1l-0.1,0.9
			c0.4,0,0.9-2.3,2.6-1.9c2.8,0.4,5.8,0.1,8.6,0.3c0,0.5-0.6,0.8-1.2,1.1c0.4,0,0.9-0.1,1.3,0.3c-0.7-0.9,1.2-0.6,0.6-1
			c2-2.1,4.7-0.2,6.5-1.6c0.2-1.9,3.9-32.2,3.9-34.5c0.6,0,1.1,0.1,1.3,0.3c-0.1-0.5-1.2-0.8-1.8-0.5L170,5.1
			c-1.3,0.4-0.3-0.7-1.6-0.6c-0.1-1,1.1-1.2,2.2-1.3c-1-0.1-1.9-0.8-2.3,0.2c-0.9-0.4,0.1-1.2-1-1.6c-0.8,0.3-1.8,1.2-2.7,0.7l0-0.2
			c-2.2-1-3.3,1.5-5.3,0.5l0.2-0.3c-0.7-0.6-2.1,0.2-3.3-0.4c0.4,0.2,0.7,0.9-0.1,1c-1.4-0.6-2.4,0-3.5-0.8l-1,1
			c-5-0.2-24.9,1.2-30,1.3l0.2-0.2c-7.7,0.5-23.5,0.4-31.5,1.7c-1.2-0.9-2.9-0.7-4.2-1c0.7,0.4,0.5,1.1-0.1,1
			c-3.9-0.1-0.3,0.7-4.2,1.1c-4.6,0.9-22-0.1-26.1-0.9c-2.2,1.4-4.9,0.3-7,1.2L49,7.2c-2.3,0.5-15.2-0.8-17.9-0.3l0.4,0.2
			c-2.3,0.9-2-0.7-3.8-1.1c0.2,1.6-1.7,2.4-2.5,2.6l0-0.3C24,8.5,21.4,9.8,19.5,10l0.1-0.9c-1.6,0.9-4.5,0.5-5.7,0.6
			C11.4,9.5,7.4,8,3.9,9.1L1.7,6.7L1.3,6.9c0,0-3.6,29.4,1,35.6l-0.1,0.9l0.9-0.1c1.1,0.4,1.6-0.6,1.5,0.3l-1.5-0.1
			c1.1,0.2,0.3,0.7-0.1,1.2c0.5,0.1,0.9,0.2,1.3,0.4c0.2-0.3-0.2-0.4-0.3-0.5c0.6-0.3,1.4-1.1,2.1-0.7c1.1,0.1,0.1,1.4,1.4,1.5
			C14.4,46,21,47,27.9,46.8c0.2,0.4,0,0.3-0.2,0.5c2.1-0.4,3.9-0.2,5.8-0.6c0.5,0.4,0.7,0.9,0.8,1.3C34.1,47.2,44.9,47.1,45.1,47.3z
			"/>
	</g>
	<g style="clip-path:url(#SVGID_00000127738270046370372660000002454164167794525315_);">
		<path class="st1" d="M0.7,41.7c0.5,0.9,1.4,1,2.3,1.2C2.4,42,1.7,41.6,0.7,41.7z"/>
		<path class="st1" d="M3.1,42.9C3.1,42.9,3.1,42.9,3.1,42.9C3.1,42.9,3.1,42.9,3.1,42.9C3.1,42.9,3.1,42.9,3.1,42.9z"/>
		<path class="st1" d="M171.3,1.3c-0.2,0-0.5,0-0.7,0.1C170.8,1.4,171.1,1.4,171.3,1.3z"/>
		<path class="st6" d="M45.1,45.6l0.1-1.5c2.1,0,0.6,1.8,2.5,1.4c0.7-2.2,3.2,0.2,3.8-0.9c0,0.2,0.9,0.2,0.9,0.9
			c0.3-1.2,1-0.3,1.5-0.6c0.2-0.3-0.2-0.4-0.3-0.7l1.3-0.4c0.5,0.4,0.7,1.1,0.1,1.2c3.5,0.4,20.4,1.6,24.2,1
			c-0.5-0.9-1.7-0.3-2.1-1.7c1-0.8,1.5,0.3,1.9-0.6c0.4,2.1,2.2,0.5,3,2.6l0.3-1.2l0.5,0.7c4.4-1.2,1-0.6,4.9-0.3
			c2.3-0.2,3.3-1.8,4.6-1.2c-0.2,0-0.7-0.7-0.1-1c0.1,1,1.6-0.7,1.8,0.3c0.6-0.1,2.4,0,1.8-1.4c0.3,0.7,2,1,1,1.6
			c0.6,0,1.1,0.3,1.5-0.1l-0.7-0.4c1.9-0.2,2.9,0.9,4.1-0.4l-0.7-0.6c1.1-0.1,2.1-0.2,2.5,1.2l-1.2,0.4c1.9,0,3-0.1,4.6-0.9l-0.6,0
			c2-1.4,12.4-2.6,14.2-4.3l-0.8-1.1l1.6-0.9c-0.2,0-0.8,3.5-0.9,3.2c3.4-0.1,20.9-0.9,24-0.2c1.3,0.6,0.2,1.7,0.2,1.9
			c1.5-0.4,0.7-1.2,2-1.1c0.4,0.2-0.1,0.9-0.3,1c0.6-0.1,1.1,0.2,1.1-0.3c-0.7-0.4-0.4-1.7-0.7-2.6l1.7,0.1l-0.1,0.9
			c0.4,0,0.9-2.3,2.6-1.9c2.8,0.4,5.8,0.1,8.6,0.3c0,0.5-0.6,0.8-1.2,1.1c0.4,0,0.9-0.1,1.3,0.3c-0.7-0.9,1.2-0.6,0.6-1
			c2-2.1,4.7-0.2,6.5-1.6c0.2-1.9,3.9-32.2,3.9-34.5c0.6,0,1.1,0.1,1.3,0.3c-0.1-0.5-1.2-0.8-1.8-0.5L170,3.3
			c-1.3,0.4-0.3-0.7-1.6-0.6c-0.1-1,1.1-1.2,2.2-1.3c-1-0.1-1.9-0.8-2.3,0.2c-0.9-0.4,0.1-1.2-1-1.6c-0.8,0.3-1.8,1.2-2.7,0.7l0-0.2
			c-2.2-1-3.3,1.5-5.3,0.5l0.2-0.3c-0.7-0.6-2.1,0.2-3.3-0.4c0.4,0.2,0.7,0.9-0.1,1c-1.4-0.6-2.4,0-3.5-0.8l-1,1
			c-5-0.2-24.9,1.2-30,1.3l0.2-0.2C114.2,3.1,98.3,3,90.4,4.4c-1.2-0.9-2.9-0.7-4.2-1c0.7,0.4,0.5,1.1-0.1,1
			c-3.9-0.1-0.3,0.7-4.2,1.1c-4.6,0.9-22-0.1-26.1-0.9c-2.2,1.4-4.9,0.3-7,1.2L49,5.4c-2.3,0.5-15.2-0.8-17.9-0.3l0.4,0.2
			c-2.3,0.9-2-0.7-3.8-1.1c0.2,1.6-1.7,2.4-2.5,2.6l0-0.3c-1.1,0.3-3.7,1.6-5.6,1.8l0.1-0.9C18,8.3,15.1,8,13.9,8
			c-2.6-0.4-6.6-1.8-10-0.7L1.7,4.9L1.3,5.1c0,0-3.6,29.4,1,35.6l-0.1,0.9l0.9-0.1c1.1,0.4,1.6-0.6,1.5,0.3l-1.5-0.1
			c1.1,0.2,0.3,0.7-0.1,1.2C3.5,43,4,43.1,4.3,43.3C4.6,43,4.2,43,4,42.8c0.6-0.3,1.4-1.1,2.1-0.7c1.1,0.1,0.1,1.4,1.4,1.5
			c6.9,0.7,13.5,1.6,20.4,1.5c0.2,0.4,0,0.3-0.2,0.5c2.1-0.4,3.9-0.2,5.8-0.6c0.5,0.4,0.7,0.9,0.8,1.3
			C34.1,45.4,44.9,45.4,45.1,45.6z"/>
	</g>
</g>
</svg>
