<?xml version="1.0" encoding="utf-8"?>
<!-- Generator: Adobe Illustrator 26.0.2, SVG Export Plug-In . SVG Version: 6.00 Build 0)  -->
<svg version="1.1" id="圖層_1" xmlns="http://www.w3.org/2000/svg" xmlns:xlink="http://www.w3.org/1999/xlink" x="0px" y="0px"
	 viewBox="0 0 1920 160" style="enable-background:new 0 0 1920 160;" xml:space="preserve">
<style type="text/css">
	.st0{clip-path:url(#SVGID_00000106143798391318759260000008909254596052873602_);}
	.st1{fill:#191919;}
</style>
<defs>
	<rect id="SVGID_1_" width="1920" height="160"/>
</defs>
<clipPath id="SVGID_00000134249694411609673470000002803950994366492042_">
	<use xlink:href="#SVGID_1_"  style="overflow:visible;"/>
</clipPath>
<g style="clip-path:url(#SVGID_00000134249694411609673470000002803950994366492042_);">
	<g>
		<path class="st1" d="M2865.4,194.7c2-5.2,0.9-16.9-4.7-14.6l-3.9,19.9L2865.4,194.7z"/>
		<path class="st1" d="M2828.2,157.8c-6.5,9.6-14,26.6-9.8,44.9c6.4-19.1,8-11.1,14.9-33.9c5.5-2.3,9.7,6.4,8.7,13.7
			c2-5.1,8.6,4.4,11.6-8.1c-7.2-15.4-16.3-16-25.8-3.3C2825.8,166.7,2827.7,161.5,2828.2,157.8z"/>
		<path class="st1" d="M2287.8,126.8l3.5,2.4C2290.3,127.9,2289.1,127.1,2287.8,126.8z"/>
		<path class="st1" d="M1952.9,115.9c2.5-0.5,3.6-2.5,3.7-4.3C1954.3,112.9,1952.4,114.2,1952.9,115.9z"/>
		<path class="st1" d="M1895.8,94c1.2,0.6,2.3,0.9,3.4,1.4C1897.9,93.5,1896.6,92.5,1895.8,94z"/>
		<path class="st1" d="M2287.8,126.8l-8.9-6.3C2278.2,127,2283.4,125.4,2287.8,126.8z"/>
		<path class="st1" d="M2753.7,205.8c1.9-1,3.4-2.8,4.9-5.2c-1.5,0.9-3,1.6-4.6,2.1C2753.9,203.8,2753.8,204.7,2753.7,205.8z"/>
		<path class="st1" d="M2435.4,110.7l2.7,0c0.8-2.3,1.6-5,2.3-8.1L2435.4,110.7z"/>
		<path class="st1" d="M2548.7,107.6c-2.6-0.7-3.5,16.2-4.4,23.5c1.4-7,3.3-10.3,5.6-11.6C2549.9,116.4,2549.5,112.5,2548.7,107.6z"
			/>
		<path class="st1" d="M2728.3,137.4l3.2-2.3C2730.7,135.7,2729.3,136.4,2728.3,137.4z"/>
		<path class="st1" d="M2354.3,107c-0.2-2.5-0.6-4.7-1-6C2353.3,103.1,2353.7,105.1,2354.3,107z"/>
		<path class="st1" d="M-814.1,234c0.1-1.2,0-2,0-3C-814.8,232.7-815,233.9-814.1,234z"/>
		<path class="st1" d="M-945.4,150.3l1.8-0.9c0.2-3.2,0.4-6.3,0.4-9.5L-945.4,150.3z"/>
		<path class="st1" d="M1791.2,72.3c0.2,0.2,0.3,0.2,0.5,0.3C1794.4,70.7,1792.8,71.1,1791.2,72.3z"/>
		<path class="st1" d="M830.7,84.8c10.9,15.1-17.7,19.4-1.3,36.2C827.8,114.3,844.2,94.6,830.7,84.8z"/>
		<path class="st1" d="M2750.7,203.6c-1.5,0.2-3.1,0.3-4.6,0.2C2748.2,204.3,2749.6,204.3,2750.7,203.6z"/>
		<path class="st1" d="M829.4,120.9c0,0.1,0,0.2,0,0.2l1.7,1.6C830.3,122,830,121.5,829.4,120.9z"/>
		<path class="st1" d="M1550.1,82.5c0.5,3,1.5,5.2,2.5,7.4C1552.5,88.1,1551.9,86,1550.1,82.5z"/>
		<path class="st1" d="M1729.7,106.5l-4.4-2.3C1727,105.8,1728.4,106.3,1729.7,106.5z"/>
		<path class="st1" d="M1456.8,106.3c-2.4-1.3-3.2-3.6-6.5-1.4c0.3,0.9,0.6,1.5,1,2.1C1452.5,104.7,1454.1,103.6,1456.8,106.3z"/>
		<path class="st1" d="M1359.8,106.4c0.5,1.3,1.2,2.3,1.8,3.4c1-0.3,2.1-0.6,3.1-0.9L1359.8,106.4z"/>
		<path class="st1" d="M-519.1,225.9c-2.1-4.8-3.4-10-4.5-15.2C-522.1,222.7-536.4,227-519.1,225.9z"/>
		<path class="st1" d="M2753.6,196.3c-0.6,4.3-1.4,6.4-2.9,7.3c1.1-0.2,2.2-0.5,3.2-0.9C2754.3,200.2,2754.3,197.8,2753.6,196.3z"/>
		<path class="st1" d="M1452.9,239.6l-15.4-2.5C1441.8,238.7,1447.4,239.6,1452.9,239.6z"/>
		<path class="st1" d="M177.2,223.5l-3.5,2C175,225.9,176.2,225.4,177.2,223.5z"/>
		<path class="st1" d="M1391.7,239.6c-2.8-6-5.7-9.4-8.7-11.7c-0.6,1.3-1.4,2.4-1.8,4.4L1391.7,239.6z"/>
		<path class="st1" d="M-523.6,210.5c0,0.1,0,0.2,0,0.2S-523.6,210.6-523.6,210.5z"/>
		<path class="st1" d="M-625.2,250.6c14.7,0.5,6.9-21.7,10-34.5c17.5-6.3,8.1,16.4,14.1,27.7c11-5.9,19.3-26.3,27.5-25.4
			c0.6,3.7,2.2,5,0.3,9.6c11.6-17.7,34.4-0.9,47.9-23c1,2,1.5,3.8,1.8,5.5c-2.2-11.1-2.5-22.4-2.1-30.5c6.6-0.4,12.2-14,14.7,0.5
			c-4-0.4-4.4,5.4-6.3,10l6.9-6.3c6.2,20.9-9.4,7.2-9.4,22.7c13.5-6.8,29.1-24.1,39.5-18.2c2.2,20.4-24.1,6.9-10.4,25l-16-7.8
			c12.2,32.2-9.7-2.3,1.5,32.2c21,5.9,23.5-10.4,44.4-4.4c4.7-11.3-1.6-16.8,3.2-28.1c29.8-20.4,23.4,51.3,45.3,24.1
			c5.7-13.6,7.9-39.4,23.4-25.8l-5.3,23.1c20.3,2.3,11.6-33.2,32.9-17.7c-3.8,9.1-16,7.6-12.9,10.4c13.8,18.2,9.8-13.1,20.4-13.1
			l2.2,20.4c21.6-3.2,45.5-18,69.5-21.7c-1.3,6.1-5.4,12.5,0.2,18.7c30.2-10.2,64.5,2.5,93.7,14.6l11.1-17.6c2.6,0.2,4.8,8,2,11.4
			c11.4,6.7,0.6-11.2,6.1-18.1c6.5-1.2,8.5,10.1,4.4,15.4c20.1-15,57.1-32.2,78.3-13.3l-4.1,5.2c16.5,7.2,18.6-36.2,33.8-19.7
			l-2.9,3.1c35.7,7.6,75.2-8.5,102.4,18.1c5.2-25.4,35.3,11.3,37.6-24.1c20.4,17.6,14.6,23.9,43.3,35.7c7.7,1.6,11.4-22.1,20.9-25.8
			l0.2,18.5l12.9-19.4l6.9,22.2l8.9-4.8c-3.5-1.1-7.5-8.3-7-13.7c13.9-8.4,33.9,12.9,34.2,22.4l32.9-15.7c-0.7,7.5-6.2,10-10.6,14.8
			c17.5-18.9,3.2,19.5,19.3,2.2c-2.2-4.2,1.2-11,1.5-14.8c8,11.2,26.3,11.3,39.8,6.6l-2.6,12.8c24.4,3.2,51.4-6.1,78.8-5.9
			c-9.8-6-7.6-28.1,0.5-30.2l3.2,19.6c5.2-12.1-8.4-7.4,2.3-22.2c10.2,2.3,6.9,22.3,1,28.6l12.4-6.8c0.7,5.9-2.2,8.9-2.9,16.4
			c5.1-12.2,21.5,19.6,28.8-1.5l0.7,5.8c27.4,0.2,39.8-6.6,62-7.6c0.4-16.9,9.1-13.2,15.8-26.8c16.4,5.4,34.5,18.7,54.3,17.2
			c13.9-8.4,4-14.3,10.3-24.4c1,15.4,20.7,13.9,10.5,25c23.7-2.5,30.2-3.1,60.2-15.6c-3.2-6.3-6.9-9.1-5-14.3
			c5.4-2.5,12.4,6.5,11.6,13.9L624,213c33.6-23.1,77.6,44.9,104.4,12.8l-1.5,1.6l27.8-16.7c12.8,2.7-7.7,11.6,1.8,21.1
			c29.9-25.7,47.3,3.7,72-13.4c19.1,45.4,67.7-3.2,93.5,25.8l-1.5-10.7c6.7-10.5,8.1,6.1,13,8.6c-0.7-8.3-7.2-9.6-3.1-15.4
			c56.4-12.9,116.4,15.6,174.3,25.3c21.2,2.9,12-55.3,38.7-29.8l-7.6,19.9c42.7-23.8,87.3,0.8,129.1-19.4
			c-2.5,4.6-2.6,10.5-6.6,10.5c8.8,14.4,32.6,0.7,32.8-11.1c6.5,1.3,1.5,10.7,5.5,16.6c8.9,8.5,22.2-18.4,26.9-4.1
			c0.8,2.3-2.5,4.7-4.1,5.8c5.8-7,26.9,1.8,21.4-14.9c15.7,7.9,30-7.4,42.5,2.5c8.2-18.6,26.8,9,29.4-17.4
			c-1.1,27.2,27.5,21.9,37.4,9.1c-3.3,8.2,8.6,8.5,4.7,19.9c11.3-0.4,21.7-5.4,19.7-19.4c20.8,32.5,41.9-26.2,53.6,15.5
			c33.6-14.6,64.7-24.5,95-30.9c-1.1,27.1-33.4,2.7-32.1,31.2c28.7-11.2,45.2-34.4,73.7-27.9c7.4,3.7-4.2,11.8-6.7,16.4
			c28.7-11.2,55.4,2.5,80.9-12.3c-0.1,2.5-2.8,5.3-5.4,7.4c5-0.9,11.7,4,11.1-8.3l-4.9,3.3c-8-17.9,20-37.4,20.9-46.8
			c-8.5,35.3,25.2,8.9,11.6,53.5c3.3-2.3,7.5-8.2,6.7-16.4c4.9,2.4,6.5,7.2,1.5,16.6c18-6.7,11.6-19.8,27.9-19.5
			c-0.1,6-3.3,8.3-5,15.3c8.3-11.6,16.6-23.3,30.3-18.2c-0.8,3.6,0.8,8.3-3.3,8.2c23.7-1.8,40.3-31,66.3-19.7
			c-7.7,25.9,8.8,8.5,10.2,31l14-6.7l-5.6-10.9c12.2,0.4,23-16,33.6-8.6l-9.1,9.2l22.9-4.3l-13-8.5c12.4-11.6-1.3-28.4,15-22.1
			c-3.3,2.3,12.2,0.3,18.6,13.5c0,0,0,0,0,0.1c6.1-7.1,12.3-14.7,21.3-9.1c2.4,7.2-1.9,24.8-0.4,29.6c6-18.8,28.6-5.2,36.2-25.2
			c-2.5,4.7-2.7,16.5-1.8,18.9l5-15.2c5.7,4.9,6.5,7.2,5.6,16.6c17,2.8-5.4-28.5,14.8-16.2c-1.6,1.2-0.8,3.5-4.1,5.8
			c20.3,6.4,39.3-9.7,57.9-2.2c5.5,22.6-16.3,5.5-10,24.6c26.9-4.1,55.7-27.1,81.8-21.7l-4.9-2.5c3.6-31.9,19.4,15.7,32.6,0.7
			c-3.2,2.4-4.2,17.7-3.4,14.1c17.8,5.1,36.5-7.8,63.5-17.9l-3.3,8.2c10.5,7.3,27.7,4.2,39,7.9c3.4-8.2,9.9-6.8,5.9-18.8
			c35,46.6,66.8-25,97.9,13.8c-3.7,0.1-8.9,7.2-5.9,7.2l26.5-7.6c-2.1-13.9-3.5-8.4-9-19.2c3.3-8.2,10.8-14.6,17.4-14.6
			c-11.9,9.2,0.1,22.3,5.2,30.1c-0.9-4.3,0.9-9,0.5-13.3c13.8,24.7,2.3-27.9,21.2-11.3l-1,7.3c7.1-3.7,13.6-13.4,21.2-11.3
			c3.2,16.1-7.5,7.5-8,20.7c10.7-0.9,21.1-30.4,30.8-14.4c-4.5,4.5-11.1,4.6-15.6,9c10.5,18.9,11.8,14.1,19.6,17.1l-0.8-0.4
			l18.1,8.5l-4.6-5.1c13.4-41.9,27.3-7.7,45.3-35.1c-17.5,26-2.9,15-4.2,33.2c4.6,5,11.6,10.7,9.6,15.8c8.5-14.7,14.2,11.6,26.3-9.9
			c0.5,5.9,9.1,0.6,7.2,15.3c11.1-4.6-2.6-10.2-1.7-17.6c17.1-20,40.2,24.3,64.7-3.2c21.2-11.3,25.1-31.1,44.8-40.9
			c6.6,9.4-5.4,21.4-5.4,21.4c10.7,8.6,18.8,7,28.8,0.3c-2,5.1,0.1,9.4,3.1,16c8.1-1.5,5.4-21.4,16.1-12.7c-1.8,6.5-4.2,17-8.1,23.6
			c9.5-5.4,19-16.3,28.8-21.6c2.6,10.2-6,15.5-9.4,22.2c11.1-4.6,28.8-9.2,32.2-25.4l-7.1-5.8c4-0.8,2.1,13.9-0.9,16.8
			c-9.5,12.7-13.7-5.6-14.3-11.5l7-3.8c-7.2-34.4-28.3,5.5-42.4,3.5l5.9-25l-14.5,20.7c-3.1-6.5-5.2-20.5,1.8-24.2
			c-10.2-12.3-9,8.9-17.7-4.9c-1-2.1-0.5-3.3,0.4-4.3l-9.9,7.4c1.9-5.3-1.6-17.7,4.4-14c-17.8-14.4-28.7,18.8-35.4-0.2l1.5-1.5
			c-24.7,8.5-2.4,18.4-20.9,39.9l-12.5-45.3l-2.4,18.4c-2.5-0.7-7.6-2-6.7-9.4c-9.5,12.6,1.6,8-3.9,19.8
			c-12.3-16.7-33.8,7.8-36.6-21.4c-4.4,14,11.7,10.8-1.4,20.5c-3.7-31.4-15.1,5.4-26.3-9c3.4-16.2,14.1-7.6,2.8-22.1
			c-6.8,27.4-21.8-6-31.3-0.7c-0.4,21.8-20.6,9.1-36.4,16.4c1-7.3-29.8-12-44.6-19.9l0.4-3.7c-2.9,22.1-18.1,17.9-29.2,22.5
			c0.4-13.2,2.4-18.4,8.4-24.3l-10.4,0.1c-2.5,7.1-5.7,10.8-12.5,13.3l2.6-16.5c-13.9,0.9-27.9,19.4-45.8,8.4
			c-1,15.4,14.2,42.9-4.7,53.1c-0.7-8.3-1.4-22.6,3.5-26c-1.6,1.1-5.8,6.9-9,3.4l7.5-14c-8.1-6.1-4.2,11.7-10.7,10.4
			c0.1-11.9-4.8-8.5-3.9-17.9c1.7-1.1,5.7,4.9,8.2,0.2c-7.3-2.1-16.2-9.2-19.1-18.2c0.6,6.8,0,16-5.4,17.5
			c-13.9,0.9-4.7-14.3-12.8-20.4c-3.4,8.2-12.2-0.3-12.4,17.4c-4.1-0.1-4.8-8.4-6.4-13.2c-7.2,7.8-33.5,2.2-25.4,21.1l1.8,1.2
			c-0.3,0.4-0.8,0.4-1.2,0.8c0.1,0,0,0,0.1,0h-0.1c-23.5,17.6-48.9-10.1-72.2-2.5l0-5.9c-13.9,6.8-31,4-41,16.8
			c-4.1,0-9.7-10.8-8-17.9c-10.6,4.5-11.8,11.1-27.2,1.3c10.7-10.4-3.7-9.2,11-7.6c-13.8-5.1-17-14.6-31.8,1.6
			c5.1-15.2-10.4-19.1-17-14.6l9.7,10.9c-7.4,2.2-13.9,0.9-20.4-0.4l3.6-20c-28.3-24.3-51.1,41.4-72.6,0.7
			c-7.5,14,15.4,9.8,8.7,26.2c-13-2.7-26.6-31.4-30.7-31.5c-17.8-11.1-16.6,29.2-35.3,21.6c2.4,7.1,4.6,26.2-9.3,32.9
			c-13-2.6-16-29.9-7.8-35.6c3.1-0.6,4.6,1.7,4.5,4.1c4.2-2.6,9.7-5.7,4.6-13.4l-1.7,7.1c-6.5-7.3-24.4-6.5-20.2-18.2
			c-9.8,6.8-4.2,11.7,3.1,15.4c-16.7-10.3-26.1-0.3-43.3-7.2c2.7,3.9,5.3,12.3,2.5,12.2c-25.2-8.8-11.1,13.5-28.2,16.7
			c-9.7-10.9,3.5-26-13.7-16.8c-10.5-7.4-2.2-18.9,2-24.7c-15.7,13.8-29.3-9-38.3-11.6l8.3-5.8c-4.9,3.4-9,3.3-13.1,3.3l4.7,14.3
			c-4.8-2.5-9-2.6-8.9-8.5c-5,9.3,3.8,23.7-6.1,36.5c-6.5-7.2-19.7,7.8-21.9-11.2c20.3,6.4-2.2-19,15-22.1
			c-3.3,2.3-7.4,2.2-12.2-0.3c-0.7-2.1,0.7-3.9,2-5c-19.5-16.9-8.9,21.4-29.1,21c2.6-10.7-4.7-20.2-8-18c8.1,0.2,3.9,17.8-3.6,26
			c-12.9-8.3-14.1,6.2-20.8,5.2l7.7,3.9c-2.6,10.7-9.1,9.3-18.1,12.6c-0.8-8.3,8.2-5.7,5-9.4c-10,18.8-22.6-19.4-36.6-6.8
			c-6.5-7.2-0.6-20-6.3-24.9c-15.6,13.8-16.9-14.6-33.4-3.2c4.7,14.3,5.6,10.8-6,24.8l27-10.1l-17.3,20.9c8.2,0.2,17.2-9,22.1-6.6
			c-8.3,11.7-7.4,8.1-3.5,20c-11.2-21.5-22.1,12.5-35-2l0.4-35.5c-19.4-15.8-34.5,18.2-59.7,9.3l8.1,6.2c-3.4,14.1-15.6,2-23.7,7.7
			c0.8-11.9-4.3-16.2-7.8-23.6c0.4,8.8-18.4-0.8-20.7,22.9l-11.2-15.6c-20.3-6.4-23.2,33.8-42.8,29.8c5.9-12.9-3-21.3,10.1-30.5
			c-6.5-0.1-12.4-2.3-12.5,5.9c-3.8-7.4-18.1,16-24.1,4.7c-2.8,5.2-3.7,17.6-11,16.7c-0.8-2.4,0-5.9,0-5.9c0,5.9-11.5,8-5.1,21.1
			c-20.1-37-56.2,2.7-73.7-29.1c-14.2,4-31.4,7.8-44.3,8.7c0.8-3.6,0-5.9,2.5-4.7c-17.8-11-11,34.1-31.3,21.7
			c-10.4-19.2,10.8-10.4,4.3-17.6c-2.8-39.1-24.5,5.3-38.2-17.5l3.3-2.3c-10.4-13.3-25.5,14.8-42.5,12c0,0,0.8-3.5,0.1-5.9
			c-11.7,19.9-33.8,26.5-50.2,32c5.1-15.3,7.5-8.1,4.3-23.6c-7.4,2.2,2.2,24.9-12.5,29.3c-4.8-8.4-15.4-15.7-16.8-32.2l13.9-0.9
			c-7.1-21.4-17.9,0.7-25.2-3l0.9-9.4c-21.2,3-21.5,26.7-44.3,25l2.4,7.1c-12.5,23.4-10.5-13.1-22.9,4.2l-3.8-23.7
			c-8.2,5.7-28.8,22.9-43.6,27.4c8.4-17.6,25.6-26.6,36.3-37c-8.2-0.2-27.7,1.7-32,13.5c3.3-2.3,7.4-8.1,10.7-4.4
			c-10,18.7-23.2,27.8-39.4,27.4c2.9-46-42.4-11.6-54.2-47.3c-28.7,17-57-7.2-90.5-4.5c11.9,35.8-9.8,1-7.7,37.8
			c-7.8,2.3-10.8,1.7-11.5-0.6l-23.6-22c-5.6-10.7,7.4-8.1,6.7-16.3c-17.1-2.8-7.2-15.6-18.5-25.3c2.3,13.1-5.9,18.8-15.7,13.8
			l13.7,17c-23.9,19.6-20.6-30.8-44.7-11.5l7.6-11.6c-12.3,6.8-45.5-0.2-57.7,29.3c-2.2-4.2-5.1-14.3,0.4-17
			c-29.5-4.4-65.7,31.4-88.6,13.2l2.2-9c-5.5,2.6-9.6,16.9-16.5,7.8c0.4-3.7,2.2-9-0.3-9.5c-2.9,3.1-14.6,15.7-21.9,10.5l6.2-10.1
			c-28.8-11.8-44.2,24.6-68.3,30.8c0.1-26.5-22.6-35.1-33.9-39.3l0.4-3.7c-33.5-3.3-56.9,21.9-88,32.3c-19.3-28.7-65.3-12-96.2-28.1
			c4.7,4.8-0.8,20.6-6.3,23.3c-7.3-5.4-20.1,18.4-18.9-5.9l2.6,0.5c-5.5-23.8-20.4-17.5-32.1-18.1l-1.9,31.7
			c-30.5-46.2-79.9,17-96.6-24.4c-7.4,7.9-16.5,7.9-23.8,15.8l0.4-17c-20.4-4.3-30.6-6.5-55.8-2.4l5.1-12.2
			c-14.2-1.1-18,49.1-31.1,50.1l-3.9-25.4c-24.8,0.4-49.9-21.9-74.4,1.1c0.4-3.7,1.1-11.1,5.1-12.1C-50.4,76.6-83.9,60.1-79.6,95
			c-0.3-22.7-25.6-2.2-39,7.8l2.1-16.7c-11.3,21.4-11.7,27.3-27.5,33.2c-3.7-2.2-3.3-13.4,1.7-9.1c-12.5-8.8-9.7,15.9-24.8,6.9
			l5.6-10.7c-12.8-1.3-11.8,4.4-18.9,16.9c-8.1,6.7-24.3-4.2-26.2-19.4c-1.7,9.2-8.8,21.6-16.3,17.2c-1-5.7,1.7-9.3,3.1-11
			c-21.5-11.4-31.9,19.5-46.6,3c-0.3-5.5-1.3-8.3-2.5-10c17,0.4,30.8,1.3,29.5,2.5c0-15.4-13.8-18.2-2.8-39.5
			c-11.1,11.6-29.9,36.9-43.4,29.7c-0.7-1.5-1.3-3-1.8-5.3l1.4-1.7c-3.1-1.5-5.9-0.1-8.5,2.5c-4.3-2.5-7-4.4-11.1-4.6
			c-1.6-12.8-15.8-6.9-22.6-7.5c0.6,16.9-8.4,14.2,0,28.1c-1.1-1.2,1.3-2,5.9-2.7c1-0.5,2.2-0.8,2.9-1.7c-0.1,0.5-0.3,1-0.5,1.5
			c4.5-0.5,10.4-0.9,17.1-1.1c-5.4,8.6-11.1,15.8-18.7,6.4c-3.5,10.9-7.4,22-9.6,27.3c-9.4-23.6-27.5-36.3-30-50.8
			c-21,9.5-49.4,6.3-62.5,38c-6,4.1-6.9-9.1-9.1-14.1c3.4-3.2,7.5-2.7,9.4-7.3c-11.9,8.1-35.3,3.2-38.1,25.3
			c-15-10,8.4-20.4-12.2-16.8l2.8-6.8c-40.6-35.4-66,56.6-111,11.1c3.1,2.8,4.7,4.1,5.3,7.8c-51.3-20.1-105.7,18.8-156.4-13
			c-14.4-6.4-15.9,7.7-24.7,18.5l-3.1-18.2l-15,20.9c-21.3,15.3-36.9-44.5-63.8-15.5l3.5,12.2c-9.7-2.3-30.7,7.2-29.1-6.9
			c-1,2.2-3.2,12.7-7,6.3l-0.3-9.5l-23.8,16.3c-18.4-6.9,2.9-37.7-24-39.6c-10,3.7-28.5,27.7-24.7,34c4,0.5,10.3,5.9,10.6,15.4
			l-9.1,4.9c-1.7,28-8.7,56.6,13.8,76.2l15.6-17.1l5,13.6l-13.2,0.9c7.5,12.8,12.2,1.5,17.5-6.3c1.3,7.2,3.5,12.3,6.6,15l15.4-26.7
			c1.9,11-6.9,21.7,3.4,27.8c7.2-12.4-6.9-24.5,5-32.7c7.5,12.7,5.3,23.1,14.1,12.2c1.2,7.2-0.6,11.8-4.1,15
			c7.8-8.6,20.7-3.7,24.7-18.5c7.8,15.7,26.4-4.1,25.6,22.4c2.5-6.3,13.8-20.8,21-21.9c-13.1,31.7,26.9,1.9,23.4,35.9
			c9.7-28.5,35.1-12.7,52.3-28.5c-1,2.3-2.9,6.9-4.4,5.4c9.7,2.4,12.5,11,18.7,16.3c1.2-23.6,16.3-28.9,24.5-43.5
			c11.9,22.7-7.2,27.6-3.5,49.5c-0.6-19.1,20.6-19,16.6-35c9.1,14.1,7.8,6.8,12.5,26.3c1.6-29.5,8.5-5,16-23.1
			c13.1,14.5,3.4,27.6,17.8,18.6C-612.4,240.2-625.2,250.6-625.2,250.6z M-282,199.7c0,0.2,0,0.3,0,0.3c-3,0.4-5.5,0.7-7.1,1
			C-287.6,200.8-285.6,200.4-282,199.7z M-253.2,199.4c-3.5-0.7-7.9-0.8-12.5-0.7c-1-5.8,0.1-11.8,3-11.5
			C-264.3,191.1-257.5,194.5-253.2,199.4z M-314.2,82.4c4.6-2.4,6.1,0.9,6.7,4.4c-2.2,0.3-4.7,0.9-8,2c-0.1,0.6-0.4,1.4-0.5,2.1
			C-315.6,87.6-315.1,84.6-314.2,82.4z"/>
		<path class="st1" d="M-322.4,104.5c-0.7,0.4-1,1.1-1.9,1.2c0.9,1.5,1.8,2.8,2.7,3.8c0.6-1.8,1.1-3.6,1.6-5.3
			C-320.8,104.4-321.6,104.4-322.4,104.5z"/>
		<path class="st1" d="M2291.9,129.5l-0.6-0.4c0.5,0.7,1,1.3,1.3,2.4C2292.1,130.8,2292.1,130.2,2291.9,129.5z"/>
		<polygon class="st1" points="145,231.8 145,227.5 142.5,231.2 		"/>
		<path class="st1" d="M2450.7,187.5c0.3,1.5,0.9,3,2.1,4.3C2452.7,190.8,2451.8,189.2,2450.7,187.5z"/>
		<path class="st1" d="M2519.3,191.3l9.7,6C2524.8,193.9,2521.8,192.3,2519.3,191.3z"/>
		<path class="st1" d="M2572.1,199.7c0.7-3,0.9-5.2,1-7.2c0-0.1-0.1-0.1-0.1-0.1L2572.1,199.7z"/>
		<path class="st1" d="M1733.3,219.6c-0.7,0.1-1.4,0.3-2,0.8C1726.5,223.6,1729.7,222.3,1733.3,219.6z"/>
		<path class="st1" d="M1982.9,180.1c-2.6,3.1-5.3,6.1-8,8C1979.3,189.4,1982.8,189.7,1982.9,180.1z"/>
		<path class="st1" d="M1454.6,239.9c0-0.1,0-0.1,0-0.3c-0.6,0.1-1.1,0-1.7,0L1454.6,239.9z"/>
		<path class="st1" d="M1963.3,187.8c4.4,3.4,8.2,2.6,11.6,0.3C1971.3,186.9,1967,185.2,1963.3,187.8z"/>
		<path class="st1" d="M2800.7,207.4l2.5,0.7c0-1.1,0.1-2,0.3-2.7L2800.7,207.4z"/>
		<path class="st1" d="M2803.6,205.4l2.8-2C2805.1,203.4,2804,203.5,2803.6,205.4z"/>
		<path class="st1" d="M2812.3,199.1l-5.9,4.3C2808.4,203.4,2811,203.9,2812.3,199.1z"/>
		<path class="st1" d="M2730.9,199.6l-0.8,6.1C2730.5,204.4,2730.8,202.4,2730.9,199.6z"/>
		<path class="st1" d="M2709.7,201.3c5.1,1.4,12.7,13.1,19.8,9.2l0.7-4.9C2726.8,214.8,2714.5,191,2709.7,201.3z"/>
		<path class="st1" d="M2621.1,125.6l17.8,4.9c-3.1-6.5-7.2-15.3,0.9-16.9C2617.3,94.2,2644.4,128.2,2621.1,125.6z"/>
		<path class="st1" d="M2565.9,116.1c9.6-3-0.1-9.5,0.4-13.2C2560.3,108.9,2558.8,110.4,2565.9,116.1z"/>
		<path class="st1" d="M2167.5,116.1l1-15.4C2161.1,102.9,2168.4,106.7,2167.5,116.1z"/>
		<polygon class="st1" points="2091.3,195.5 2098.5,205.1 2101.9,191 		"/>
		<polygon class="st1" points="2046.3,86 2049.5,83.8 2037.2,89.4 		"/>
		<path class="st1" d="M1377,91.5l2.2,18.9C1384.3,107,1385.3,85.7,1377,91.5z"/>
		<path class="st1" d="M1088.1,110.8c-3.1-9.5-11.3-15.6-16.3-6.3C1078.3,105.8,1084.8,113.2,1088.1,110.8z"/>
		<polygon class="st1" points="221.7,79.9 227.5,73.6 216.5,78.9 		"/>
	</g>
</g>
</svg>
